<svg xmlns="http://www.w3.org/2000/svg" fill="currentColor" viewBox="0 0 24 24"><g><path d="M11.992 20.582a8.3 8.3 0 0 1-3.329-.673 8.6 8.6 0 0 1-2.73-1.843 8.7 8.7 0 0 1-1.852-2.73 8.4 8.4 0 0 1-.664-3.33q0-1.775.664-3.328a8.6 8.6 0 0 1 1.851-2.73 8.6 8.6 0 0 1 2.731-1.844 8.3 8.3 0 0 1 3.329-.672q1.777 0 3.328.672a8.6 8.6 0 0 1 2.74 1.843q1.178 1.17 1.842 2.731a8.3 8.3 0 0 1 .673 3.329 8.3 8.3 0 0 1-.673 3.328 8.62 8.62 0 0 1-4.582 4.574 8.3 8.3 0 0 1-3.328.672m-1.52-3.802h3.495q.3 0 .498-.183.2-.19.2-.49a.63.63 0 0 0-.2-.473.68.68 0 0 0-.498-.199h-.954v-4.067q0-.39-.191-.631-.191-.24-.556-.24h-1.644a.67.67 0 0 0-.49.198.65.65 0 0 0-.199.473q0 .3.2.49a.7.7 0 0 0 .49.183h.87v3.594h-1.02a.7.7 0 0 0-.498.2.63.63 0 0 0-.2.472q0 .3.2.49a.73.73 0 0 0 .498.183m1.47-7.62q.498 0 .838-.349t.34-.83q0-.507-.34-.847a1.13 1.13 0 0 0-.838-.348q-.49 0-.838.348-.35.341-.35.847 0 .481.35.83.348.348.838.349"/></g></svg>